<svg xmlns="http://www.w3.org/2000/svg" viewBox="0 0 400 240">
  <defs>
    <linearGradient id="ivivBg" x1="0" y1="0" x2="1" y2="1">
      <stop offset="0" stop-color="#f8fafc"/>
      <stop offset="1" stop-color="#ecfdf5"/>
    </linearGradient>
  </defs>

  <rect width="400" height="240" fill="url(#ivivBg)"/>

  <!-- axes -->
  <line x1="56" y1="30" x2="56" y2="196" stroke="#94a3b8" stroke-width="1.5"/>
  <line x1="56" y1="196" x2="356" y2="196" stroke="#94a3b8" stroke-width="1.5"/>

  <g stroke="#cbd5e1" stroke-width="1">
    <line x1="56" y1="155" x2="356" y2="155"/>
    <line x1="56" y1="113" x2="356" y2="113"/>
    <line x1="56" y1="71" x2="356" y2="71"/>
  </g>

  <!-- regression line -->
  <line x1="70" y1="182" x2="342" y2="44" stroke="#0d9488" stroke-width="3" stroke-linecap="round"/>

  <!-- scatter points -->
  <g fill="#0ea5e9" stroke="#0369a1" stroke-width="1">
    <circle cx="92" cy="170" r="6"/>
    <circle cx="126" cy="150" r="6"/>
    <circle cx="118" cy="128" r="6"/>
    <circle cx="160" cy="120" r="6"/>
    <circle cx="182" cy="102" r="6"/>
    <circle cx="210" cy="112" r="6"/>
    <circle cx="228" cy="86" r="6"/>
    <circle cx="256" cy="80" r="6"/>
    <circle cx="270" cy="60" r="6"/>
    <circle cx="300" cy="66" r="6"/>
    <circle cx="318" cy="48" r="6"/>
  </g>

  <text x="56" y="20" font-family="Segoe UI, Arial, sans-serif" font-size="13" fill="#64748b">In-vivo</text>
  <text x="352" y="214" text-anchor="end" font-family="Segoe UI, Arial, sans-serif" font-size="13" fill="#64748b">In-vitro</text>

  <text x="340" y="175" text-anchor="end" font-family="Segoe UI, Arial, sans-serif" font-size="14" font-weight="700" fill="#115e59">r² = 0.98</text>
</svg>
